<svg width="21" height="20" viewBox="0 0 21 20" fill="none" xmlns="http://www.w3.org/2000/svg">
<g clip-path="url(#clip0_21525_15393)">
<path d="M16.3333 10.8333V15C16.3333 15.4583 15.9583 15.8333 15.5 15.8333H5.5C5.04167 15.8333 4.66667 15.4583 4.66667 15V10.8333C4.66667 10.375 4.29167 10 3.83333 10C3.375 10 3 10.375 3 10.8333V15.8333C3 16.75 3.75 17.5 4.66667 17.5H16.3333C17.25 17.5 18 16.75 18 15.8333V10.8333C18 10.375 17.625 10 17.1667 10C16.7083 10 16.3333 10.375 16.3333 10.8333ZM11.3333 10.5583L12.9 8.99167C13.225 8.66667 13.75 8.66667 14.075 8.99167C14.4 9.31667 14.4 9.84167 14.075 10.1667L11.0833 13.1583C10.7583 13.4833 10.2333 13.4833 9.90833 13.1583L6.91667 10.1667C6.59167 9.84167 6.59167 9.31667 6.91667 8.99167C7.24167 8.66667 7.76667 8.66667 8.09167 8.99167L9.66667 10.5583V3.33333C9.66667 2.875 10.0417 2.5 10.5 2.5C10.9583 2.5 11.3333 2.875 11.3333 3.33333V10.5583Z" fill="white"/>
</g>
<defs>
<clipPath id="clip0_21525_15393">
<rect width="20" height="20" fill="white" transform="translate(0.5)"/>
</clipPath>
</defs>
</svg>
