<svg width="24" height="24" viewBox="0 0 24 24" fill="none" xmlns="http://www.w3.org/2000/svg">
<path d="M11 9.25072C11 9.84765 11.2371 10.4201 11.6592 10.8422C12.0813 11.2643 12.6538 11.5014 13.2507 11.5014C13.8476 11.5014 14.4201 11.2643 14.8422 10.8422C15.2643 10.4201 15.5014 9.84765 15.5014 9.25072C15.5014 8.65379 15.2643 8.08131 14.8422 7.65922C14.4201 7.23713 13.8476 7 13.2507 7C12.6538 7 12.0813 7.23713 11.6592 7.65922C11.2371 8.08131 11 8.65379 11 9.25072Z" stroke="white" stroke-width="1.5" stroke-linecap="round" stroke-linejoin="round"/>
<path d="M9.42969 4.28592C9.42969 3.576 10.0057 3 10.7156 3H19.7156C20.4255 3 21.0015 3.576 21.0015 4.28592V19.7141C21.0015 20.424 20.4255 21 19.7156 21H15.2156" stroke="white" stroke-width="1.9" stroke-linecap="round" stroke-linejoin="round"/>
<path d="M5.57422 10.7139H8.19214C8.57402 10.7139 8.94023 10.8657 9.21022 11.1358L12.8664 14.7934C13.1366 15.0629 13.5028 15.2142 13.8845 15.2139H15.8616" stroke="white" stroke-width="1.8" stroke-linecap="round" stroke-linejoin="round"/>
<path d="M10.7141 12.6426L7.27824 16.0784C7.00825 16.3485 6.64204 16.5003 6.26016 16.5003H3" stroke="white" stroke-width="1.8" stroke-linecap="round" stroke-linejoin="round"/>
<path d="M8.14062 15.2139L10.2905 17.3638C10.5606 17.6338 10.7124 18 10.7125 18.3819V20.9998" stroke="white" stroke-width="1.8" stroke-linecap="round" stroke-linejoin="round"/>
</svg>
