<svg width="25" height="24" viewBox="0 0 25 24" fill="none" xmlns="http://www.w3.org/2000/svg">
<path d="M21.0775 3.94891C20.9739 3.45611 20.5663 3.07471 20.0591 3.01049C20.0093 3.00393 19.9595 3 19.9084 3H11.8571C11.8125 3 11.7679 3 11.7234 3H5.5607C4.90144 3 4.3667 3.53475 4.3667 4.194V18.2193L4.46762 17.7802C4.773 16.6583 5.73895 15.7946 6.89232 15.6137C7.17673 15.6071 7.46245 15.6032 7.74818 15.598H19.9084C20.0106 15.598 20.1102 15.5836 20.2046 15.5586C20.7118 15.4289 21.088 14.9754 21.1011 14.4302C21.1011 14.421 21.1024 14.4118 21.1024 14.4027V4.194C21.1024 4.11012 21.0932 4.02755 21.0762 3.9476L21.0775 3.94891ZM14.9856 9.60961L11.3092 11.9727C11.1401 12.0658 10.9763 11.9976 10.9213 11.8154L10.9055 7.06433C10.9199 6.95423 10.9737 6.82054 11.093 6.79433C11.1323 6.78516 11.1729 6.78254 11.2135 6.78778L14.9856 9.18758C15.1232 9.29505 15.1232 9.50213 14.9856 9.60961Z" fill="white"/>
<path d="M9.10938 22.0781C9.10938 22.1633 9.19981 22.2171 9.27452 22.1751L10.1631 21.685C10.2745 21.6234 10.4095 21.6234 10.5209 21.685L11.4096 22.1738C11.4843 22.2145 11.5747 22.1607 11.5747 22.0755V19.0001L9.10938 19.0001V22.0768V22.0781Z" fill="white"/>
<path d="M5.49609 18.5355C5.49609 19.5552 6.32311 20.3822 7.3428 20.3822H7.99288V19.0951H7.36246C7.05446 19.0951 6.80412 18.8448 6.80412 18.5368C6.80412 18.2288 7.05446 17.9785 7.36246 17.9785H19.2225C19.3287 17.4857 19.5672 17.0427 19.9028 16.6914H7.3428C6.32311 16.6914 5.49609 17.5184 5.49609 18.5381V18.5355Z" fill="white"/>
<path d="M18.9171 19H12.6929V20.2871H19.9028C19.5659 19.9358 19.3274 19.4928 19.2225 19H18.9185H18.9171Z" fill="white"/>
</svg>
