<svg width="20" height="20" viewBox="0 0 20 20" fill="none" xmlns="http://www.w3.org/2000/svg">
<g clip-path="url(#clip0_21525_15398)">
<path d="M16.3832 3.32555C14.1832 1.82555 11.4665 2.52555 9.99985 4.24221C8.53319 2.52555 5.81652 1.81721 3.61652 3.32555C2.44985 4.12555 1.71652 5.47555 1.66652 6.90055C1.54985 10.1339 4.41652 12.7255 8.79152 16.7005L8.87485 16.7755C9.50819 17.3505 10.4832 17.3505 11.1165 16.7672L11.2082 16.6839C15.5832 12.7172 18.4415 10.1255 18.3332 6.89221C18.2832 5.47555 17.5499 4.12555 16.3832 3.32555ZM10.0832 15.4589L9.99985 15.5422L9.91652 15.4589C5.94985 11.8672 3.33319 9.49221 3.33319 7.08388C3.33319 5.41721 4.58319 4.16721 6.24985 4.16721C7.53319 4.16721 8.78319 4.99221 9.22485 6.13388H10.7832C11.2165 4.99221 12.4665 4.16721 13.7499 4.16721C15.4165 4.16721 16.6665 5.41721 16.6665 7.08388C16.6665 9.49221 14.0499 11.8672 10.0832 15.4589Z" fill="white"/>
</g>
<defs>
<clipPath id="clip0_21525_15398">
<rect width="20" height="20" fill="white"/>
</clipPath>
</defs>
</svg>
