<svg width="24" height="24" viewBox="0 0 24 24" fill="none" xmlns="http://www.w3.org/2000/svg">
<path d="M20 11.3997V19.8C20 19.9856 19.9298 20.1637 19.8047 20.295C19.6797 20.4262 19.5101 20.5 19.3333 20.5H14.6667C14.4899 20.5 14.3203 20.4262 14.1953 20.295C14.0702 20.1637 14 19.9856 14 19.8V15.2498C14 15.157 13.9649 15.0679 13.9024 15.0023C13.8399 14.9367 13.7551 14.8998 13.6667 14.8998H10.3333C10.2449 14.8998 10.1601 14.9367 10.0976 15.0023C10.0351 15.0679 10 15.157 10 15.2498V19.8C10 19.9856 9.92976 20.1637 9.80474 20.295C9.67971 20.4262 9.51014 20.5 9.33333 20.5H4.66667C4.48986 20.5 4.32029 20.4262 4.19526 20.295C4.07024 20.1637 4 19.9856 4 19.8V11.3997C4.00016 11.0284 4.14075 10.6724 4.39083 10.41L11.0575 3.40974C11.3075 3.14738 11.6465 3 12 3C12.3535 3 12.6925 3.14738 12.9425 3.40974L19.6092 10.41C19.8593 10.6724 19.9998 11.0284 20 11.3997Z" fill="white"/>
</svg>
