<svg width="183" height="121" viewBox="0 0 183 121" fill="none" xmlns="http://www.w3.org/2000/svg">
<path d="M78.527 16.2239L68.0914 10.3941C66.0419 9.24987 63.5072 10.7345 63.5072 13.0809V36.8055C63.5072 38.3987 64.427 39.8471 65.8681 40.5206L72.27 43.5187C73.7256 44.1995 74.6453 45.6623 74.6309 47.2701L74.5367 58.0316C74.5367 58.7558 74.1384 59.4293 73.5084 59.7914L71.7631 60.798C70.7347 61.3918 69.4456 60.6459 69.4529 59.451L69.5325 48.1825C69.5398 47.0238 68.8952 45.9593 67.8669 45.4234L65.745 44.3226C64.7166 43.7939 63.5 44.5398 63.5 45.6913V65.8891C63.5 69.0466 66.9182 71.0236 69.6557 69.4449L78.5632 64.3031C79.8306 63.5717 80.6127 62.2174 80.6127 60.7473V43.4174C80.6127 41.8458 79.7147 40.4119 78.2953 39.724L74.1746 37.7252C73.4504 37.3703 72.9942 36.6244 73.0159 35.8206L73.0449 34.8863C73.0883 33.4235 74.6019 32.4748 75.9417 33.0759L77.7159 33.8725C79.0774 34.4808 80.6127 33.4886 80.6127 32.004V19.8014C80.6127 18.3168 79.8089 16.9408 78.5125 16.2166L78.527 16.2239Z" fill="white"/>
<path d="M118.155 38.9493L115.526 37.4864C114.266 36.784 112.73 36.7984 111.477 37.5154L94.1258 47.531C92.757 48.3204 91.0407 47.3282 91.0479 45.7495L91.0769 25.979C91.0769 24.5016 90.2875 23.1401 89.0057 22.4087L87.637 21.6266C86.2683 20.8444 84.5664 21.8366 84.5664 23.4081V53.7301C84.5664 56.8876 87.9846 58.8646 90.7221 57.2859L118.176 41.4333C119.147 40.8757 119.132 39.478 118.155 38.9348V38.9493Z" fill="white"/>
<path d="M95.9876 42.7141L108.523 35.0883C109.038 34.7769 109.023 34.0165 108.494 33.7268L96.0745 26.8253C95.3865 26.4414 94.5392 26.9484 94.5464 27.7377L94.7782 42.0551C94.7854 42.6634 95.4517 43.0327 95.9731 42.7141H95.9876Z" fill="#3C8AF7"/>
</svg>
