<svg width="24" height="24" viewBox="0 0 24 24" fill="none" xmlns="http://www.w3.org/2000/svg">
<path d="M13.9492 8.84766C14.633 8.8479 15.1924 9.40798 15.1924 10.0918L15.1924 18.7969C15.1922 19.4805 14.6329 20.0398 13.9492 20.04H5.24316C4.55936 20.04 4.00022 19.4806 4 18.7969L4 10.0918C4 9.40788 4.55923 8.84773 5.24316 8.84766H13.9492ZM5.86523 10.0918C5.52335 10.0918 5.24336 10.3711 5.24316 10.7129L5.24316 18.1748C5.24323 18.5167 5.52327 18.7969 5.86523 18.7969H13.3271C13.669 18.7968 13.9492 18.5167 13.9492 18.1748L13.9492 10.7129C13.949 10.3711 13.6689 10.0919 13.3271 10.0918H5.86523ZM16.4365 6.36035C17.1203 6.36061 17.6797 6.92068 17.6797 7.60449V16.9307C17.6797 17.2726 17.3996 17.5527 17.0576 17.5527C16.7157 17.5526 16.4365 17.2726 16.4365 16.9307V8.22656C16.4365 7.88465 16.1564 7.60461 15.8145 7.60449L7.1084 7.60449C6.76656 7.60429 6.4873 7.32428 6.4873 6.98242C6.48737 6.64061 6.7666 6.36055 7.1084 6.36035L16.4365 6.36035ZM18.3887 4C19.2997 4.00011 20.0378 4.7394 20.0381 5.65039V15.7646C20.0381 16.1236 19.7476 16.4149 19.3887 16.415C19.0298 16.4149 18.7383 16.1235 18.7383 15.7646V5.65039C18.738 5.45737 18.5817 5.3009 18.3887 5.30078L8.27344 5.30078C7.9146 5.30061 7.62305 5.00927 7.62305 4.65039C7.62329 4.29172 7.91475 4.00017 8.27344 4L18.3887 4Z" fill="white"/>
</svg>
