<svg width="25" height="24" viewBox="0 0 25 24" fill="none" xmlns="http://www.w3.org/2000/svg">
<g clip-path="url(#clip0_21506_13489)">
<path d="M15.8336 14.0006H15.0436L14.7636 13.7306C15.9636 12.3306 16.5836 10.4206 16.2436 8.39063C15.7736 5.61063 13.4536 3.39063 10.6536 3.05063C6.42363 2.53063 2.86363 6.09063 3.38363 10.3206C3.72363 13.1206 5.94363 15.4406 8.72363 15.9106C10.7536 16.2506 12.6636 15.6306 14.0636 14.4306L14.3336 14.7106V15.5006L18.5836 19.7506C18.9936 20.1606 19.6636 20.1606 20.0736 19.7506C20.4836 19.3406 20.4836 18.6706 20.0736 18.2606L15.8336 14.0006ZM9.83363 14.0006C7.34363 14.0006 5.33363 11.9906 5.33363 9.50063C5.33363 7.01063 7.34363 5.00063 9.83363 5.00063C12.3236 5.00063 14.3336 7.01063 14.3336 9.50063C14.3336 11.9906 12.3236 14.0006 9.83363 14.0006Z" fill="white"/>
</g>
<defs>
<clipPath id="clip0_21506_13489">
<rect width="24" height="24" fill="white" transform="translate(0.333496)"/>
</clipPath>
</defs>
</svg>
