<svg width="20" height="20" viewBox="0 0 20 20" fill="none" xmlns="http://www.w3.org/2000/svg">
<path d="M17.1689 3.93359C17.083 4.39151 16.9353 5.01906 16.7373 5.7627C16.3422 7.24684 15.7614 9.15002 15.123 10.998C14.4828 12.8514 13.7937 14.6231 13.1855 15.8564C12.9212 16.3925 12.6864 16.7888 12.498 17.0439C12.4787 17.0157 12.4571 16.9858 12.4365 16.9531C12.3016 16.7385 12.1638 16.4626 12.0264 16.1367C11.7513 15.4843 11.503 14.6886 11.293 13.9033C11.0839 13.1217 10.9178 12.3691 10.8037 11.8105C10.7468 11.5318 10.7022 11.3025 10.6729 11.1436C10.6582 11.0643 10.648 11.0025 10.6406 10.9609C10.637 10.9402 10.6336 10.9244 10.6318 10.9141C10.6309 10.9089 10.6303 10.9048 10.6299 10.9023C10.6297 10.9013 10.63 10.8999 10.6299 10.8994L10.5312 10.3242L9.9502 10.2773H9.94727C9.94482 10.2771 9.94073 10.2768 9.93555 10.2764C9.92471 10.2755 9.90764 10.2744 9.88574 10.2725C9.84197 10.2686 9.77692 10.2621 9.69336 10.2539C9.52597 10.2375 9.28474 10.2121 8.99316 10.1768C8.40864 10.1059 7.62769 9.99529 6.83203 9.83691C6.02974 9.67721 5.24267 9.47473 4.63379 9.22754C4.32937 9.10393 4.09551 8.97906 3.93262 8.86035C3.90752 8.84206 3.88591 8.82387 3.86621 8.80762C3.89015 8.78571 3.9159 8.75952 3.94727 8.7334C4.24285 8.48727 4.73134 8.18134 5.3877 7.83594C6.68825 7.15154 8.50472 6.38581 10.3721 5.7002C12.2378 5.0152 14.125 4.42131 15.5586 4.07227C16.2489 3.9042 16.8069 3.80056 17.1973 3.76465C17.1885 3.81686 17.1803 3.87335 17.1689 3.93359Z" stroke="white" stroke-width="1.5"/>
</svg>
