<svg width="24" height="24" viewBox="0 0 24 24" fill="none" xmlns="http://www.w3.org/2000/svg">
<path d="M21.1025 5.00488C21.6067 5.05621 22 5.48232 22 6V17.333C22 17.8507 21.6067 18.2768 21.1025 18.3281L21 18.333H3C2.44772 18.333 2 17.8853 2 17.333L2 6C2 5.44772 2.44772 5 3 5L21 5L21.1025 5.00488ZM3.7998 16.5332H20.2002V6.7998L3.7998 6.7998L3.7998 16.5332ZM10.9648 12.5869C11.3431 12.6251 11.6385 12.9447 11.6387 13.333C11.6387 13.7215 11.3432 14.0409 10.9648 14.0791L10.8887 14.083H5.33301C4.91894 14.0828 4.58301 13.7471 4.58301 13.333C4.58318 12.9191 4.91905 12.5832 5.33301 12.583H10.8887L10.9648 12.5869ZM18.667 12.583C19.0809 12.5832 19.4168 12.9191 19.417 13.333C19.417 13.7471 19.081 14.0828 18.667 14.083H14.2227C13.8084 14.083 13.4727 13.7472 13.4727 13.333C13.4728 12.9189 13.8086 12.583 14.2227 12.583H18.667ZM9.77734 9.25C10.1916 9.25 10.5273 9.58579 10.5273 10C10.5273 10.4142 10.1916 10.75 9.77734 10.75H5.33301C4.91894 10.7498 4.58301 10.4141 4.58301 10C4.58301 9.5859 4.91894 9.25018 5.33301 9.25H9.77734ZM18.7432 9.25391C19.1214 9.29223 19.417 9.61161 19.417 10C19.417 10.3884 19.1214 10.7078 18.7432 10.7461L18.667 10.75H13.1113C12.6971 10.75 12.3613 10.4142 12.3613 10C12.3613 9.58579 12.6971 9.25 13.1113 9.25H18.667L18.7432 9.25391Z" fill="white"/>
</svg>
