<svg width="18" height="16" viewBox="0 0 18 16" fill="none" xmlns="http://www.w3.org/2000/svg">
<path d="M17.41 0.948911C17.3065 0.456106 16.8989 0.074707 16.3916 0.0104852C16.3418 0.00393195 16.292 0 16.2409 0H8.18958C8.14502 0 8.10046 0 8.0559 0H1.89322C1.23396 0 0.699219 0.534745 0.699219 1.194V15.2193L0.800139 14.7802C1.10552 13.6583 2.07147 12.7946 3.22484 12.6137C3.50925 12.6071 3.79497 12.6032 4.0807 12.598H16.2409C16.3431 12.598 16.4427 12.5836 16.5371 12.5586C17.0443 12.4289 17.4205 11.9754 17.4336 11.4302C17.4336 11.421 17.4349 11.4118 17.4349 11.4027V1.194C17.4349 1.11012 17.4257 1.02755 17.4087 0.9476L17.41 0.948911ZM11.3181 6.60961L7.64173 8.97271C7.47266 9.06577 7.30883 8.99761 7.25378 8.81543L7.23805 4.06433C7.25247 3.95423 7.30621 3.82054 7.42547 3.79433C7.46479 3.78516 7.50542 3.78254 7.54605 3.78778L11.3181 6.18758C11.4557 6.29505 11.4557 6.50213 11.3181 6.60961Z" fill="white"/>
</svg>
