<svg width="183" height="121" viewBox="0 0 183 121" fill="none" xmlns="http://www.w3.org/2000/svg">
<path d="M78.527 16.2239L68.0914 10.3941C66.0419 9.24987 63.5072 10.7345 63.5072 13.0809V36.8055C63.5072 38.3987 64.427 39.8471 65.8681 40.5206L72.27 43.5187C73.7256 44.1995 74.6453 45.6623 74.6309 47.2701L74.5367 58.0316C74.5367 58.7558 74.1384 59.4293 73.5084 59.7914L71.7631 60.798C70.7347 61.3918 69.4456 60.6459 69.4529 59.451L69.5325 48.1825C69.5398 47.0238 68.8952 45.9593 67.8669 45.4234L65.745 44.3226C64.7166 43.7939 63.5 44.5398 63.5 45.6913V65.8891C63.5 69.0466 66.9182 71.0236 69.6557 69.4449L78.5632 64.3031C79.8306 63.5717 80.6127 62.2174 80.6127 60.7473V43.4174C80.6127 41.8458 79.7147 40.4119 78.2953 39.724L74.1746 37.7252C73.4504 37.3703 72.9942 36.6244 73.0159 35.8206L73.0449 34.8863C73.0883 33.4235 74.6019 32.4748 75.9417 33.0759L77.7159 33.8725C79.0774 34.4808 80.6127 33.4886 80.6127 32.004V19.8014C80.6127 18.3168 79.8089 16.9408 78.5125 16.2166L78.527 16.2239Z" fill="white"/>
<path d="M118.155 38.9493L115.526 37.4864C114.266 36.784 112.73 36.7984 111.477 37.5154L94.1258 47.531C92.757 48.3204 91.0407 47.3282 91.0479 45.7495L91.0769 25.979C91.0769 24.5016 90.2875 23.1401 89.0057 22.4087L87.637 21.6266C86.2683 20.8444 84.5664 21.8366 84.5664 23.4081V53.7301C84.5664 56.8876 87.9846 58.8646 90.7221 57.2859L118.176 41.4333C119.147 40.8757 119.132 39.478 118.155 38.9348V38.9493Z" fill="white"/>
<path d="M95.9876 42.7141L108.523 35.0883C109.038 34.7769 109.023 34.0165 108.494 33.7268L96.0745 26.8253C95.3865 26.4414 94.5392 26.9484 94.5464 27.7377L94.7782 42.0551C94.7854 42.6634 95.4517 43.0327 95.9731 42.7141H95.9876Z" fill="#3C8AF7"/>
<path d="M1.128 114.12V111L14.928 111.024C15.632 111.024 16.168 110.864 16.536 110.544C16.92 110.208 17.112 109.672 17.112 108.936C17.112 108.2 16.92 107.672 16.536 107.352C16.168 107.016 15.632 106.848 14.928 106.848H6.336C4.56 106.848 3.176 106.424 2.184 105.576C1.208 104.712 0.72 103.448 0.72 101.784C0.72 100.12 1.208 98.864 2.184 98.016C3.176 97.152 4.56 96.72 6.336 96.72H19.824V99.84L6.744 99.816C6.056 99.816 5.52 99.976 5.136 100.296C4.752 100.6 4.56 101.096 4.56 101.784C4.56 102.472 4.752 102.976 5.136 103.296C5.52 103.6 6.056 103.752 6.744 103.752H15.336C17.112 103.752 18.488 104.192 19.464 105.072C20.456 105.936 20.952 107.224 20.952 108.936C20.952 110.632 20.456 111.92 19.464 112.8C18.488 113.68 17.112 114.12 15.336 114.12H1.128ZM30.6317 114C29.2397 114 28.2157 113.656 27.5597 112.968C26.9037 112.264 26.5757 111.344 26.5757 110.208V104.4H22.9997V101.64H26.5757V97.848H30.0557V101.64H35.1917V104.4H30.0557V109.776C30.0557 110.752 30.5357 111.24 31.4957 111.24H35.8637V114H30.6317ZM38.8528 114V101.64H48.3088C49.7008 101.64 50.7248 101.992 51.3808 102.696C52.0368 103.384 52.3648 104.296 52.3648 105.432V108H48.8368V105.864C48.8368 104.904 48.3568 104.424 47.3968 104.424H42.3808V114H38.8528ZM62.2794 114.12C60.1354 114.12 58.4634 113.592 57.2634 112.536C56.0634 111.464 55.4634 109.896 55.4634 107.832C55.4634 105.752 56.0634 104.184 57.2634 103.128C58.4634 102.056 60.1354 101.52 62.2794 101.52H68.2794C69.6874 101.52 70.7594 101.856 71.4954 102.528C72.2474 103.184 72.6234 104.128 72.6234 105.36C72.6234 107.872 71.1754 109.128 68.2794 109.128H59.2074C59.5434 110.616 60.5674 111.36 62.2794 111.36H71.9994V114.12H62.2794ZM62.2794 104.28C60.6314 104.28 59.6154 104.976 59.2314 106.368H68.1114C68.4314 106.368 68.6794 106.272 68.8554 106.08C69.0474 105.888 69.1434 105.624 69.1434 105.288C69.1434 104.616 68.7994 104.28 68.1114 104.28H62.2794ZM79.2752 114C77.9792 114 76.9872 113.672 76.2992 113.016C75.6112 112.36 75.2672 111.424 75.2672 110.208C75.2672 109.008 75.6112 108.08 76.2992 107.424C76.9872 106.768 77.9792 106.44 79.2752 106.44H88.4912V105.864C88.4912 104.888 88.0112 104.4 87.0512 104.4H76.8752V101.64H87.9632C89.4192 101.64 90.4512 101.976 91.0592 102.648C91.6672 103.304 91.9712 104.232 91.9712 105.432V114H79.2752ZM79.8992 111.24H88.4912V109.2H79.8992C79.5952 109.2 79.3552 109.296 79.1792 109.488C79.0192 109.664 78.9392 109.904 78.9392 110.208C78.9392 110.512 79.0192 110.76 79.1792 110.952C79.3552 111.144 79.5952 111.24 79.8992 111.24ZM95.82 114V101.64H111.828C113.236 101.64 114.268 101.992 114.924 102.696C115.58 103.384 115.908 104.296 115.908 105.432V114H112.428V105.864C112.428 104.888 111.932 104.4 110.94 104.4H107.604V114H104.124V104.4H99.3V114H95.82ZM119.997 114V96.84H123.837V110.88H136.389V114H119.997ZM139.634 114V101.64H143.114V114H139.634ZM139.61 99.6V96.888H143.138V99.6H139.61ZM146.543 114.12V111.36H158.303C158.975 111.36 159.311 110.984 159.311 110.232C159.311 109.496 158.975 109.128 158.303 109.128H150.695C149.271 109.128 148.191 108.808 147.455 108.168C146.719 107.512 146.351 106.576 146.351 105.36C146.351 104.128 146.719 103.184 147.455 102.528C148.207 101.856 149.287 101.52 150.695 101.52H161.639V104.28H150.863C150.175 104.28 149.831 104.616 149.831 105.288C149.831 105.624 149.927 105.888 150.119 106.08C150.311 106.272 150.559 106.368 150.863 106.368H158.927C160.175 106.368 161.127 106.696 161.783 107.352C162.455 107.992 162.791 108.928 162.791 110.16C162.791 111.408 162.455 112.384 161.783 113.088C161.111 113.776 160.159 114.12 158.927 114.12H146.543ZM166.034 114V96.84H169.514V101.64H176.81C178.218 101.64 179.242 101.992 179.882 102.696C180.538 103.384 180.866 104.296 180.866 105.432V114H177.386V105.84C177.386 104.88 176.906 104.4 175.946 104.4H169.514V114H166.034Z" fill="white"/>
</svg>
